<svg width="24" height="25" viewBox="0 0 24 25" fill="none" xmlns="http://www.w3.org/2000/svg">
<path opacity="0.4" d="M13.3051 6.39073V6.57377C12.8144 6.56414 12.3237 6.56414 11.8331 6.56414V6.40036C11.8331 5.73563 11.2737 5.19614 10.6064 5.19614H9.63482C8.52589 5.19614 7.62305 4.30982 7.62305 3.23084C7.62305 2.83585 7.95671 2.5083 8.35906 2.5083C8.77123 2.5083 9.09508 2.83585 9.09508 3.23084C9.09508 3.51985 9.34042 3.75106 9.63482 3.75106H10.6064C12.0882 3.7607 13.2953 4.94566 13.3051 6.39073Z" fill="#CCCCD2"/>
<path d="M11.8332 6.56433C12.3238 6.56433 12.8145 6.56433 13.3052 6.57397C14.2375 6.57397 15.1698 6.59323 16.1119 6.60287C19.5172 6.60287 22 9.03059 22 12.3832V16.6895C22 20.042 19.5172 22.4698 16.1119 22.4698C14.7478 22.4987 13.3837 22.5083 12.0098 22.5083C10.6359 22.5083 9.25221 22.4987 7.88813 22.4698C4.48283 22.4698 2 20.042 2 16.6895V12.3832C2 9.03059 4.48283 6.60287 7.89794 6.60287C9.18351 6.5836 10.4985 6.56433 11.8332 6.56433ZM9.08538 12.0749C8.67321 12.0749 8.34936 12.4024 8.34936 12.7974V13.809H7.30913C6.90677 13.809 6.57311 14.1365 6.57311 14.5315C6.57311 14.9361 6.90677 15.254 7.30913 15.254H8.34936V16.2752C8.34936 16.6702 8.67321 16.9978 9.08538 16.9978C9.48773 16.9978 9.82139 16.6702 9.82139 16.2752V15.254H10.8518C11.2542 15.254 11.5878 14.9361 11.5878 14.5315C11.5878 14.1365 11.2542 13.809 10.8518 13.809H9.82139V12.7974C9.82139 12.4024 9.48773 12.0749 9.08538 12.0749ZM16.7988 15.4949H16.7007C16.2885 15.4949 15.9647 15.8224 15.9647 16.2174C15.9647 16.622 16.2885 16.94 16.7007 16.94H16.7988C17.2012 16.94 17.5348 16.622 17.5348 16.2174C17.5348 15.8224 17.2012 15.4949 16.7988 15.4949ZM15.1207 12.1808H15.0226C14.6104 12.1808 14.2866 12.5084 14.2866 12.9034C14.2866 13.308 14.6104 13.6259 15.0226 13.6259H15.1207C15.5231 13.6259 15.8567 13.308 15.8567 12.9034C15.8567 12.5084 15.5231 12.1808 15.1207 12.1808Z" fill="#CCCCD2"/>
</svg>
