<svg width="21" height="19" viewBox="0 0 21 19" fill="none" xmlns="http://www.w3.org/2000/svg">
<path d="M6.28099 0.000154665C6.91099 0.0193143 7.52099 0.129314 8.11199 0.330314H8.17099C8.21099 0.349314 8.24099 0.370314 8.26099 0.389314C8.48199 0.460314 8.69099 0.540314 8.89099 0.650314L9.27099 0.820314C9.42099 0.900314 9.60099 1.04931 9.70099 1.11031C9.80099 1.16931 9.91099 1.23031 10.001 1.29931C11.112 0.450314 12.461 -0.00968566 13.851 0.000154665C14.482 0.000154665 15.112 0.0893143 15.711 0.290314C19.402 1.49031 20.732 5.54031 19.621 9.08031C18.991 10.8893 17.961 12.5403 16.612 13.8893C14.681 15.7593 12.562 17.4193 10.281 18.8493L10.031 19.0003L9.77099 18.8393C7.48199 17.4193 5.35099 15.7593 3.40199 13.8793C2.06199 12.5303 1.03099 10.8893 0.390993 9.08031C-0.739007 5.54031 0.590993 1.49031 4.32199 0.269314C4.61199 0.169314 4.91099 0.0993143 5.21099 0.0603143H5.33099C5.61199 0.0193143 5.89099 0.000154665 6.17099 0.000154665H6.28099ZM15.191 3.16031C14.781 3.01931 16.151 2.08 16.001 2.5C15.861 2.92 17.081 3.851 17.501 4C18.142 4.24 17.501 4.301 17.501 5L19.001 5.5C18.982 5.729 17.861 6.33 18.001 6.5C21.061 6.08969 17.281 7.479 17.501 7.5C17.501 7.5 17.271 6.86031 17.301 6.43931V6.32031C17.331 4.91931 16.482 3.65031 15.191 3.16031Z" fill="#25CBFF"/>
</svg>
