<svg width="24" height="24" viewBox="0 0 24 24" fill="none" xmlns="http://www.w3.org/2000/svg">
<path d="M16.3338 2C19.7231 2 22 4.37811 22 7.91672V16.0833C22 19.6219 19.7231 22 16.3328 22H7.66618C4.2769 22 2 19.6219 2 16.0833V7.91672C2 4.37811 4.2769 2 7.66618 2H16.3338ZM17.4366 12.5501C16.3646 11.8813 15.5371 12.8204 15.3138 13.1207C15.0986 13.4107 14.9136 13.7306 14.7185 14.0506C14.2419 14.84 13.6958 15.7503 12.7506 16.2797C11.377 17.0402 10.3342 16.3395 9.58404 15.8297C9.30248 15.6398 9.02897 15.4603 8.75645 15.3406C8.08473 15.0506 7.48038 15.3808 6.5834 16.5201C6.11279 17.1156 5.6462 17.7059 5.17358 18.2941C4.89102 18.646 4.95839 19.1889 5.3395 19.4241C5.94788 19.7988 6.68999 20 7.52864 20H15.9564C16.432 20 16.9087 19.935 17.3632 19.7864C18.3869 19.452 19.1994 18.6863 19.6237 17.6749C19.9817 16.8246 20.1557 15.7926 19.8208 14.934C19.7092 14.6491 19.5423 14.3839 19.308 14.1507C18.6936 13.5408 18.1194 12.9711 17.4366 12.5501ZM8.49886 6C7.12021 6 6 7.12173 6 8.5C6 9.87827 7.12021 11 8.49886 11C9.8765 11 10.9977 9.87827 10.9977 8.5C10.9977 7.12173 9.8765 6 8.49886 6Z" fill="#CCCCD2"/>
</svg>
