<svg width="16" height="16" viewBox="0 0 16 16" fill="none" xmlns="http://www.w3.org/2000/svg">
<path d="M14.5874 10.7295L15.7284 10.0707L15.0699 8.93009L16 8.00001L15.0699 7.0699L15.7284 5.92927L14.587 5.27028L14.9274 3.99992L13.6568 3.65946V2.34298H12.3402L11.9996 1.07171L10.7294 1.41206L10.0716 0.272761L8.93118 0.931185L7.99999 0L7.0698 0.930192L5.9305 0.272416L5.27211 1.41277L3.99923 1.07171L3.65859 2.34298H2.34314V3.65914L1.07136 3.99992L1.41228 5.27222L0.273646 5.92961L0.931303 7.06871L0 8.00001L0.931282 8.9313L0.273635 10.0704L1.41195 10.7276L1.07103 11.9999L2.34314 12.3408V13.6567H3.65889L3.99957 14.9281L5.27207 14.5871L5.9305 15.7276L7.0698 15.0698L7.99999 16L8.93118 15.0688L10.0716 15.7272L10.7294 14.5879L11.9992 14.9281L12.3399 13.6567H13.6568V12.3404L14.9278 11.9999L14.5874 10.7295Z" fill="#ED2590"/>
<path d="M5 7.66667L7.21053 10L11 6" stroke="#202020"/>
</svg>
