<svg width="20" height="20" viewBox="0 0 20 20" fill="none" xmlns="http://www.w3.org/2000/svg">
<path fill-rule="evenodd" clip-rule="evenodd" d="M10.001 0C4.47813 0 0.000976562 4.47715 0.000976562 10C0.000976562 15.5228 4.47813 20 10.001 20C15.5238 20 20.001 15.5228 20.001 10C20.001 4.47715 15.5238 0 10.001 0ZM7.00098 7C7.55326 7 8.00098 6.55228 8.00098 6C8.00098 5.44772 7.55326 5 7.00098 5C6.44869 5 6.00098 5.44772 6.00098 6C6.00098 6.55228 6.44869 7 7.00098 7ZM14.001 6C14.001 6.55228 13.5533 7 13.001 7C12.4487 7 12.001 6.55228 12.001 6C12.001 5.44772 12.4487 5 13.001 5C13.5533 5 14.001 5.44772 14.001 6ZM14.6204 12.9134C14.8716 12.3068 15.001 11.6566 15.001 11H5.00098C5.00098 11.6566 5.13031 12.3068 5.38158 12.9134C5.63285 13.52 6.00115 14.0712 6.46544 14.5355C6.92974 14.9998 7.48093 15.3681 8.08756 15.6194C8.69419 15.8707 9.34437 16 10.001 16C10.6576 16 11.3078 15.8707 11.9144 15.6194C12.521 15.3681 13.0722 14.9998 13.5365 14.5355C14.0008 14.0712 14.3691 13.52 14.6204 12.9134Z" fill="#CCCCCC"/>
</svg>
