<svg width="108" height="32" viewBox="0 0 108 32" fill="none" xmlns="http://www.w3.org/2000/svg">
<path fill-rule="evenodd" clip-rule="evenodd" d="M25.9373 18.8648C25.9373 11.7023 20.1311 5.89612 12.9687 5.89612C5.80622 5.89612 0 11.7023 0 18.8648C0 26.0273 5.80622 31.8335 12.9687 31.8335C20.1311 31.8335 25.9373 26.0273 25.9373 18.8648ZM12.9686 12.4159C16.3736 12.4159 19.134 15.2905 19.134 18.8363C19.134 22.3822 16.3736 25.2568 12.9686 25.2568C9.56369 25.2568 6.80324 22.3822 6.80324 18.8363C6.80324 15.2905 9.56369 12.4159 12.9686 12.4159Z" fill="#ED2590"/>
<path fill-rule="evenodd" clip-rule="evenodd" d="M40.6776 5.66968C33.355 6.3403 29.6227 10.4978 29.4806 18.1422V31.3235H36.4256V17.0084C36.3715 14.2809 37.8361 12.958 40.8193 13.0398L40.6776 5.66968Z" fill="#ED2590"/>
<path fill-rule="evenodd" clip-rule="evenodd" d="M44.6461 0V31.3232H51.1659V22.2522C56.5409 21.5597 59.1394 24.5833 58.9612 31.3232H65.481C65.825 23.2392 62.9903 18.2785 57.5439 17.0081L66.4732 6.37802H58.3943L51.3076 15.449V0H44.6461Z" fill="#ED2590"/>
<path fill-rule="evenodd" clip-rule="evenodd" d="M69.5914 6.66123L69.7332 22.3937C70.9124 34.7222 90.6135 35.6715 92.2689 22.3937L92.4105 6.66123L85.4656 6.51949L85.6074 19.4173C85.3117 27.5436 76.3825 27.4019 76.2529 19.4173V6.37775L69.5914 6.66123Z" fill="#ED2590"/>
<path fill-rule="evenodd" clip-rule="evenodd" d="M95.9536 0.28363L96.0953 19.7012C95.9151 26.6543 100.829 31.9928 107.292 31.7486L107.151 24.9453C104.943 24.7198 103.526 23.2079 102.899 20.4098V13.1814H107.292V6.37816H102.757V0.28363H95.9536Z" fill="#ED2590"/>
</svg>
